<svg xmlns="http://www.w3.org/2000/svg" viewBox="0 0 144 72">
<title>lineage_logo_mark_ltrbox_teal_144x72</title>
<g id="mark_-_letterbox" data-name="mark - letterbox" transform="translate(0.000000,72.000000) scale(0.002057,-0.002057)"
fill="#06446C" stroke="none">
<path d="M34510 33869 c-1952 -112 -3670 -657 -5186 -1644 -1088 -709 -2052
-1674 -2789 -2790 -1039 -1574 -1637 -3492 -1736 -5570 -15 -323 -6 -1176 15
-1439 105 -1294 395 -2440 912 -3611 107 -244 374 -780 519 -1045 128 -232
416 -713 603 -1005 147 -230 551 -832 737 -1100 1136 -1632 1477 -2190 1811
-2968 262 -610 390 -1182 409 -1837 7 -232 21 -349 60 -506 143 -574 616
-1124 1340 -1559 142 -85 522 -277 695 -350 445 -190 942 -347 1462 -464 1094
-245 1971 -279 2968 -115 892 147 1700 396 2370 730 447 224 688 382 986 645
379 336 626 712 728 1110 37 145 54 283 61 499 14 432 50 698 141 1060 133
528 356 1048 727 1702 241 422 661 1061 1352 2053 182 262 608 898 747 1115
174 273 436 708 567 945 146 261 434 837 545 1090 519 1176 804 2305 912 3615
21 258 30 1116 15 1431 -63 1295 -316 2518 -751 3634 -403 1035 -936 1949
-1625 2790 -375 457 -996 1065 -1462 1431 -1149 902 -2413 1512 -3868 1864
-633 154 -1300 248 -2034 290 -213 12 -1018 11 -1231 -1z m1230 -1334 c493
-35 800 -75 1270 -166 1071 -208 2129 -628 3030 -1202 753 -480 1431 -1080
1986 -1757 438 -535 748 -1013 1072 -1652 605 -1196 945 -2545 1013 -4021 13
-287 7 -1049 -10 -1282 -124 -1655 -595 -3050 -1574 -4655 -325 -534 -701
-1096 -1412 -2110 -465 -664 -732 -1077 -993 -1535 -502 -882 -797 -1690 -917
-2511 -34 -232 -44 -357 -55 -649 -10 -269 -17 -309 -72 -420 -162 -323 -615
-651 -1283 -929 -910 -380 -2030 -592 -2882 -547 -440 23 -746 64 -1173 157
-651 141 -1291 370 -1745 623 -407 227 -676 463 -793 696 -55 111 -62 151 -72
420 -11 291 -21 418 -55 645 -133 912 -473 1788 -1087 2805 -226 375 -443 702
-823 1245 -905 1291 -1291 1875 -1666 2520 -807 1386 -1251 2709 -1383 4115
-42 447 -55 1150 -28 1570 80 1259 347 2399 809 3445 374 846 827 1562 1427
2255 487 562 1062 1064 1703 1489 251 165 302 196 548 333 1115 621 2337 987
3680 1103 274 24 374 27 815 28 315 1 521 -3 670 -13z"/>
<path d="M33675 31360 c-1417 -283 -2562 -852 -3605 -1791 -338 -304 -715
-703 -1046 -1107 -214 -261 -261 -358 -271 -562 -9 -188 40 -333 158 -468 56
-65 75 -79 164 -122 173 -84 327 -100 490 -49 166 51 240 107 408 309 519 625
915 1011 1437 1400 469 349 1047 658 1595 851 326 115 633 199 990 269 271 53
341 84 461 204 135 135 191 279 181 461 -13 214 -64 345 -181 460 -185 183
-396 222 -781 145z"/>
<path d="M36075 29110 c-79 -14 -109 -25 -222 -85 -467 -247 -920 -660 -1267
-1155 -507 -723 -842 -1694 -969 -2815 l-12 -110 -64 85 c-70 94 -124 195
-180 339 -50 128 -92 190 -193 287 -171 164 -392 228 -621 179 -120 -25 -211
-77 -309 -175 -101 -101 -136 -164 -167 -305 -11 -49 -38 -171 -60 -270 -80
-361 -160 -829 -201 -1170 -44 -364 -63 -935 -41 -1240 39 -534 168 -950 462
-1486 56 -102 83 -140 142 -196 211 -205 441 -266 710 -188 125 36 163 58 243
143 135 141 184 255 192 443 5 149 -18 244 -88 357 -179 286 -218 368 -283
592 -48 168 -67 298 -74 526 -5 171 10 611 23 656 4 14 30 -3 122 -83 229
-198 408 -320 647 -439 198 -99 331 -122 507 -85 242 51 456 250 509 475 9 37
12 98 8 185 -2 72 -3 238 -1 370 11 1001 192 1943 505 2629 l45 99 7 -79 c55
-630 214 -1224 481 -1795 139 -297 284 -551 639 -1119 123 -195 244 -393 269
-440 95 -171 151 -325 168 -458 12 -101 4 -276 -16 -348 -8 -27 -28 -101 -45
-164 -48 -176 -89 -294 -148 -422 -108 -238 -110 -406 -6 -618 37 -76 60 -108
122 -170 132 -130 240 -179 412 -187 247 -13 459 94 597 301 81 121 203 390
255 561 8 28 38 124 66 215 62 201 78 292 92 547 20 370 -12 647 -111 943
-114 341 -242 572 -603 1087 -264 377 -362 533 -475 758 -207 415 -319 781
-383 1260 -21 152 -23 211 -23 545 -1 446 22 704 99 1145 56 315 14 493 -159
673 -90 94 -177 145 -308 182 -83 24 -219 33 -293 20z"/>
<path d="M31940 20294 c-95 -20 -147 -41 -223 -92 -129 -85 -242 -245 -282
-402 -21 -79 -16 -221 10 -290 9 -25 176 -542 371 -1150 207 -647 369 -1136
391 -1180 50 -102 205 -259 309 -313 115 -59 166 -67 446 -67 226 0 247 -1
252 -17 3 -10 298 -1219 656 -2688 359 -1468 660 -2694 671 -2724 30 -86 78
-157 159 -234 96 -92 190 -142 313 -168 179 -37 320 -20 477 57 81 40 109 61
186 138 122 123 149 179 215 446 27 113 323 1326 658 2695 l608 2490 284 6
c304 6 327 9 444 64 81 38 207 165 257 260 24 47 156 445 398 1200 l362 1130
-5 115 c-10 220 -61 352 -188 498 -80 92 -174 163 -255 195 -128 49 43 47
-3321 46 -2636 0 -3138 -3 -3193 -15z m5303 -1451 c-36 -104 -102 -296 -148
-428 l-82 -240 -1894 0 -1893 0 -118 395 c-65 217 -122 410 -127 428 l-9 32
2168 0 2168 0 -65 -187z m-1513 -2050 c1 -18 -585 -2363 -590 -2363 -5 0 -592
2345 -590 2363 0 4 266 7 590 7 325 0 590 -3 590 -7z"/>
<path d="M39358 8075 c-93 -23 -181 -69 -316 -162 -473 -327 -875 -527 -1414
-701 -517 -168 -1066 -269 -1753 -324 -216 -18 -1171 -17 -1395 0 -932 72
-1619 231 -2330 539 -271 118 -552 275 -848 475 -73 49 -161 102 -196 118
-190 86 -428 76 -616 -27 -87 -48 -235 -196 -283 -284 -133 -240 -89 -527 113
-730 103 -103 416 -316 712 -483 194 -109 572 -292 773 -374 752 -306 1578
-487 2555 -558 298 -21 1023 -30 1335 -15 851 40 1531 150 2220 358 677 204
1352 532 1910 928 154 109 231 188 279 287 49 101 66 175 66 293 0 280 -172
537 -425 637 -72 28 -93 31 -205 34 -86 3 -143 -1 -182 -11z"/>
<path d="M30701 5799 c-137 -27 -245 -84 -353 -187 -64 -61 -87 -91 -118 -156
-105 -220 -89 -463 44 -670 59 -93 114 -144 251 -236 567 -379 1266 -698 1855
-845 200 -50 176 -35 184 -113 24 -238 116 -541 246 -807 131 -268 277 -471
505 -700 227 -228 429 -373 710 -510 391 -192 712 -265 1164 -265 247 0 407
17 616 67 333 78 686 246 968 460 124 94 383 346 478 464 289 362 488 821 550
1272 l12 87 36 9 c20 6 81 21 136 35 620 157 1290 470 1837 859 157 111 234
190 282 289 49 101 66 175 66 293 0 181 -66 346 -190 473 -76 79 -128 111
-236 148 -68 24 -94 28 -194 27 -191 0 -265 -27 -477 -170 -579 -392 -1208
-640 -2013 -792 -311 -60 -709 -104 -1175 -132 -260 -16 -1073 -16 -1380 0
-1099 56 -1926 243 -2635 596 -212 105 -313 164 -520 304 -203 136 -269 170
-377 195 -77 17 -199 19 -272 5z m5589 -2518 c-317 -617 -1097 -869 -1720
-556 -245 124 -444 321 -588 585 l-45 83 78 -6 c43 -4 178 -12 299 -18 288
-15 1694 -4 1886 13 74 7 136 10 138 6 2 -4 -20 -52 -48 -107z"/>
</g>
</svg>
